# xmcd
#
# Track frame offsets: 
#        150
#        16318
#        36785
#        49103
#        62855
#        84085
#        97418
#        118363
#        138895
#        152753
#        173428
#
# Disc length: 2543 seconds
#
# Revision: 2
# Processed by: cddbd v1.5.2PL0 Copyright (c) Steve Scherf et al.
# Submitted via: ExactAudioCopy v0.99pb4
#
DISCID=8b09ed0b
DTITLE=Keri Leigh and The Blue Devils - Blue Devil Blues
DYEAR=1994
DGENRE=Blues
TTITLE0=I'm Ready
TTITLE1=Train Don't Roll
TTITLE2=I Be's Troubled
TTITLE3=Roll And Tumble Blues
TTITLE4=Goin' To The Valley
TTITLE5=Tryin' To Get To You
TTITLE6=In The Mood
TTITLE7=Got Love If You Want It
TTITLE8=Terraplane
TTITLE9=Preachin' Blues
TTITLE10=On My Way (Goin' Home)
EXTD=
EXTT0=
EXTT1=
EXTT2=
EXTT3=
EXTT4=
EXTT5=
EXTT6=
EXTT7=
EXTT8=
EXTT9=
EXTT10=
PLAYORDER=
